<svg width="40" height="64" viewBox="0 0 40 64" fill="none" xmlns="http://www.w3.org/2000/svg">
<g clip-path="url(#clip0_9224_97)">
<path d="M19.5937 5.21426C25.1505 12.2686 28.1168 20.9678 28.0092 29.8942V32.0251L29.8426 33.1406C32.2114 34.5746 33.978 36.7987 34.8206 39.4078C34.0808 38.8631 33.3069 38.3649 32.5035 37.9162L27.6146 35.1712L26.7361 40.7113C26.66 41.2009 26.558 41.6862 26.4305 42.1653H12.7315C12.5278 41.5386 12.3623 40.9119 12.2095 40.2601L11.1018 35.2464L6.5949 37.7532C5.84195 38.1743 5.11498 38.6389 4.41782 39.1445C5.27678 36.5657 7.00654 34.354 9.31944 32.8774L11.0636 31.7618V29.7814C11.0951 20.8912 14.0971 12.2582 19.6065 5.21426H19.5937ZM19.6065 0C19.3207 0.000693879 19.0449 0.103086 18.8299 0.288288L18.7153 0.388562C11.3737 8.47225 7.29708 18.9252 7.25693 29.7689C4.14154 31.7588 1.83547 34.7633 0.741707 38.2572C-0.352057 41.7512 -0.163956 45.5124 1.27314 48.8837C2.78704 45.592 5.31779 42.8548 8.50462 41.0623C8.82423 42.4253 9.24987 43.762 9.77777 45.0607C9.84472 45.3104 9.99312 45.5315 10.2001 45.69C10.4072 45.8485 10.6613 45.9357 10.9236 45.9381H28.5949C28.9514 45.9381 29.3079 45.5997 29.4861 45.0732C30.0013 43.8385 30.3605 42.5462 30.5555 41.2252C33.7485 43.0102 36.2813 45.7496 37.787 49.0466C39.3108 45.692 39.5468 41.907 38.451 38.3941C37.3553 34.8811 35.0023 31.8789 31.8287 29.9444C31.9546 19.0367 27.8995 8.48319 20.4722 0.388562C20.3616 0.266817 20.2263 0.169315 20.0749 0.102377C19.9236 0.035439 19.7596 0.000559553 19.5937 0L19.6065 0Z" fill="#4EA8DE"/>
<path d="M19.5938 28.7285C18.6159 28.7285 17.6599 28.4435 16.8463 27.9093C16.0327 27.3752 15.3979 26.6159 15.022 25.7272C14.646 24.8384 14.5457 23.86 14.7338 22.9152C14.9218 21.9704 15.3897 21.1016 16.0785 20.4182C16.7673 19.7349 17.6462 19.2675 18.6044 19.0752C19.5625 18.8828 20.5571 18.974 21.4627 19.3373C22.3683 19.7006 23.1444 20.3197 23.6931 21.1166C24.2419 21.9134 24.5388 22.8524 24.5463 23.8151V23.8151C24.5615 24.439 24.4517 25.0597 24.2232 25.6418C23.9947 26.2239 23.6519 26.756 23.2145 27.2076C22.777 27.6593 22.2534 28.0216 21.6737 28.274C21.0939 28.5263 20.4694 28.6638 19.8357 28.6784C19.7555 28.691 19.6739 28.691 19.5938 28.6784V28.7285Z" fill="#4EA8DE"/>
<path d="M26.4815 49.0591C26.1629 49.0491 25.8456 49.1018 25.548 49.2142C25.2504 49.3265 24.9786 49.4962 24.7485 49.7134C24.5185 49.9306 24.3348 50.1908 24.2082 50.4788C24.0817 50.7668 24.0148 51.0767 24.0116 51.3905V58.7857C24.0116 59.4306 24.2718 60.0491 24.735 60.5052C25.1982 60.9612 25.8264 61.2174 26.4815 61.2174C27.1366 61.2174 27.7648 60.9612 28.228 60.5052C28.6912 60.0491 28.9514 59.4306 28.9514 58.7857V51.4908C28.9616 51.1782 28.9085 50.8667 28.7951 50.5746C28.6818 50.2824 28.5105 50.0154 28.2913 49.7891C28.0721 49.5627 27.8093 49.3816 27.5182 49.2563C27.2272 49.131 26.9137 49.064 26.5961 49.0591H26.4815Z" fill="#5E60CE"/>
<path d="M12.7315 49.0592C12.4075 49.0423 12.0834 49.0898 11.7784 49.1987C11.4735 49.3077 11.1939 49.4759 10.9563 49.6934C10.7188 49.911 10.5281 50.1733 10.3956 50.4649C10.2631 50.7564 10.1916 51.0712 10.1852 51.3905V58.7858C10.1852 59.4307 10.4454 60.0492 10.9086 60.5052C11.3718 60.9612 12 61.2174 12.6551 61.2174C13.3101 61.2174 13.9384 60.9612 14.4016 60.5052C14.8648 60.0492 15.125 59.4307 15.125 58.7858V51.4908C15.1352 51.1782 15.082 50.8668 14.9687 50.5746C14.8554 50.2825 14.6841 50.0154 14.4649 49.7891C14.2457 49.5628 13.9829 49.3817 13.6918 49.2563C13.4008 49.131 13.0873 49.064 12.7697 49.0592H12.7315Z" fill="#5E60CE"/>
<path d="M19.4155 49.0591C19.0978 49.0525 18.7819 49.1075 18.4858 49.2211C18.1897 49.3347 17.9193 49.5046 17.6899 49.7211C17.4605 49.9376 17.2768 50.1964 17.149 50.4829C17.0213 50.7693 16.9522 51.0777 16.9456 51.3905V61.5809C16.9456 62.2258 17.2058 62.8443 17.669 63.3003C18.1322 63.7563 18.7604 64.0125 19.4155 64.0125C20.0705 64.0125 20.6988 63.7563 21.162 63.3003C21.6252 62.8443 21.8854 62.2258 21.8854 61.5809V51.5535C21.8955 51.2409 21.8424 50.9294 21.7291 50.6373C21.6158 50.3451 21.4445 50.0781 21.2253 49.8517C21.006 49.6254 20.7432 49.4443 20.4522 49.319C20.1611 49.1937 19.8477 49.1266 19.53 49.1218L19.4155 49.0591Z" fill="#5E60CE"/>
</g>
<defs>
<clipPath id="clip0_9224_97">
<rect width="39.1111" height="64" fill="white"/>
</clipPath>
</defs>
</svg>
